<?xml version="1.0" encoding="UTF-8" standalone="no"?>
<!-- Created with Inkscape (http://www.inkscape.org/) -->

<svg
   xmlns:osb="http://www.openswatchbook.org/uri/2009/osb"
   xmlns:dc="http://purl.org/dc/elements/1.1/"
   xmlns:cc="http://creativecommons.org/ns#"
   xmlns:rdf="http://www.w3.org/1999/02/22-rdf-syntax-ns#"
   xmlns:svg="http://www.w3.org/2000/svg"
   xmlns="http://www.w3.org/2000/svg"
   xmlns:xlink="http://www.w3.org/1999/xlink"
   xmlns:sodipodi="http://sodipodi.sourceforge.net/DTD/sodipodi-0.dtd"
   xmlns:inkscape="http://www.inkscape.org/namespaces/inkscape"
   width="256"
   height="256"
   viewBox="0 0 67.733332 67.733335"
   version="1.1"
   id="svg884"
   inkscape:version="0.92.3 (2405546, 2018-03-11)"
   sodipodi:docname="Slimeball.svg"
   inkscape:export-filename="D:\Programming\Projects\Git\Rune-Valley\Rune Valley\Assets\Sprites\PNG\Slimeball.png"
   inkscape:export-xdpi="96"
   inkscape:export-ydpi="96">
  <defs
     id="defs878">
    <linearGradient
       inkscape:collect="always"
       id="linearGradient10330">
      <stop
         style="stop-color:#1298a1;stop-opacity:0.68036532"
         offset="0"
         id="stop10326" />
      <stop
         style="stop-color:#1298a1;stop-opacity:0;"
         offset="1"
         id="stop10328" />
    </linearGradient>
    <linearGradient
       id="linearGradient10041"
       osb:paint="solid">
      <stop
         style="stop-color:#12a183;stop-opacity:1;"
         offset="0"
         id="stop10039" />
    </linearGradient>
    <radialGradient
       inkscape:collect="always"
       xlink:href="#linearGradient10330"
       id="radialGradient10332"
       cx="27.049311"
       cy="30.563822"
       fx="27.049311"
       fy="30.563822"
       r="28.385917"
       gradientTransform="matrix(1.0010155,-0.97621027,1.0633494,1.0903688,-23.574562,35.110933)"
       gradientUnits="userSpaceOnUse" />
  </defs>
  <sodipodi:namedview
     id="base"
     pagecolor="#ffffff"
     bordercolor="#666666"
     borderopacity="1.0"
     inkscape:pageopacity="0.0"
     inkscape:pageshadow="2"
     inkscape:zoom="2.8"
     inkscape:cx="61.448259"
     inkscape:cy="135.45616"
     inkscape:document-units="mm"
     inkscape:current-layer="layer4"
     showgrid="false"
     inkscape:window-width="1920"
     inkscape:window-height="1010"
     inkscape:window-x="-8"
     inkscape:window-y="-8"
     inkscape:window-maximized="1"
     units="px"
     inkscape:snap-global="false"
     showguides="false" />
  <metadata
     id="metadata881">
    <rdf:RDF>
      <cc:Work
         rdf:about="">
        <dc:format>image/svg+xml</dc:format>
        <dc:type
           rdf:resource="http://purl.org/dc/dcmitype/StillImage" />
        <dc:title></dc:title>
      </cc:Work>
    </rdf:RDF>
  </metadata>
  <g
     inkscape:groupmode="layer"
     id="layer2"
     inkscape:label="Fill">
    <g
       inkscape:groupmode="layer"
       id="layer3"
       inkscape:label="BG">
      <path
         style="fill:#46ca98;fill-opacity:1;stroke:#000000;stroke-width:0.26458332px;stroke-linecap:butt;stroke-linejoin:miter;stroke-opacity:1"
         d="M 24.115457,9.7860916 C 20.855412,9.6915916 7.7207398,11.534233 5.6418708,24.810643 3.5630018,38.087061 15.138523,49.993311 15.138523,49.993311 l 4.960937,3.401785 c 0,0 5.669643,3.54353 9.921875,4.630206 4.252233,1.086683 16.914434,1.98438 26.080358,-9.969119 9.165923,-11.953499 4.724701,-23.907 4.724701,-23.907 0,0 0.661464,-8.55171 -2.504091,-10.63058 C 55.156752,11.439733 50.337557,7.8017118 37.580859,8.4631717 24.824162,9.1246317 24.115457,9.7860916 24.115457,9.7860916 Z"
         id="path1438-0"
         inkscape:connector-curvature="0" />
    </g>
    <g
       inkscape:groupmode="layer"
       id="layer4"
       inkscape:label="Gradient">
      <path
         style="fill:url(#radialGradient10332);fill-opacity:1;stroke:#000000;stroke-width:0.26458332px;stroke-linecap:butt;stroke-linejoin:miter;stroke-opacity:1"
         d="M 23.92126,9.7177948 C 20.661215,9.6232948 7.5265423,11.465936 5.4476733,24.742346 3.3688043,38.018764 14.944326,49.925014 14.944326,49.925014 l 4.960937,3.401785 c 0,0 5.669643,3.54353 9.921874,4.630206 4.252233,1.086683 16.914434,1.98438 26.080358,-9.969119 9.165923,-11.953499 4.724701,-23.907 4.724701,-23.907 0,0 0.661462,-8.55171 -2.504091,-10.63058 C 54.962554,11.371436 50.143359,7.7334149 37.386661,8.3948749 24.629965,9.0563349 23.92126,9.7177948 23.92126,9.7177948 Z"
         id="path1438"
         inkscape:connector-curvature="0" />
    </g>
  </g>
  <g
     inkscape:label="Outline"
     inkscape:groupmode="layer"
     id="layer1"
     transform="translate(0,-229.26665)">
    <path
       style="opacity:1;fill:#000000;fill-opacity:1;stroke:none;stroke-width:1.30900002;stroke-linecap:butt;stroke-linejoin:round;stroke-miterlimit:4;stroke-dasharray:none;stroke-dashoffset:0;stroke-opacity:1;paint-order:normal"
       id="path1436"
       d="m 22.737542,238.39158 c 0.298032,-0.0919 0.59631,-0.17641 0.903857,-0.22975 0.34854,-0.051 0.701769,-0.0474 1.053115,-0.0496 0.41585,9.3e-4 0.831701,8.2e-4 1.247552,7.7e-4 0.365547,1.3e-4 0.731085,-0.002 1.096631,-0.001 0.36921,-0.005 0.735509,-0.054 1.099446,-0.11239 0.431208,-0.0767 0.858888,-0.17159 1.28868,-0.25585 0.609568,-0.11327 1.21957,-0.22248 1.833441,-0.30994 0.852093,-0.13794 1.713616,-0.1788 2.574012,-0.22603 0.941266,-0.0584 1.883899,-0.087 2.826729,-0.10215 0.854575,-0.0128 1.709266,-0.0135 2.563918,-0.0153 0.77664,0.006 1.551258,0.0698 2.324603,0.13619 0.765365,0.072 1.53004,0.15091 2.295419,0.22304 0.75669,0.0819 1.5153,0.14357 2.27189,0.22633 0.69646,0.0777 1.391261,0.16969 2.085602,0.26432 0.687038,0.1102 1.372526,0.23245 2.052711,0.37944 0.622364,0.12509 1.221645,0.33234 1.807935,0.57207 0.543822,0.22607 1.046959,0.53475 1.560634,0.81998 0.572918,0.32125 1.16078,0.61424 1.734982,0.93308 1.281321,0.66415 2.50032,1.38633 3.618179,2.28764 0.511411,0.41247 0.963536,0.89013 1.350841,1.41974 0.362572,0.52554 0.581499,1.12481 0.778166,1.727 0.197668,0.67291 0.313465,1.36152 0.413454,2.05409 0.114416,0.75779 0.16275,1.5217 0.22501,2.28469 0.05132,0.83928 0.102258,1.67874 0.145711,2.51851 0.02297,0.83335 0.10637,1.66173 0.202777,2.48908 0.09671,0.79158 0.256929,1.57346 0.427405,2.35188 0.202528,0.81939 0.354859,1.64918 0.452853,2.48728 0.08752,0.95426 0.104955,1.91428 0.08878,2.87195 -0.02532,1.02993 -0.196781,2.04468 -0.421767,3.04736 -0.232103,1.03731 -0.656701,2.01195 -1.09002,2.97741 -0.519218,1.12411 -1.086175,2.2257 -1.657032,3.32428 -0.618633,1.19039 -1.249768,2.37429 -1.875393,3.56104 -0.540676,1.04611 -1.079477,2.0923 -1.649537,3.1228 -0.457325,0.84021 -1.005576,1.62327 -1.600274,2.37068 -0.587034,0.72809 -1.325931,1.29659 -2.075556,1.84456 -0.880663,0.65361 -1.82385,1.20971 -2.783856,1.73646 -1.027149,0.57766 -2.098185,1.07059 -3.17604,1.54468 -1.073644,0.4852 -2.182497,0.88041 -3.308347,1.22426 -1.107466,0.33701 -2.248778,0.5286 -3.396816,0.65745 -1.132742,0.10859 -2.271583,0.11804 -3.408505,0.12626 -1.115632,0.0352 -2.226596,-0.0619 -3.332628,-0.19576 -1.130057,-0.14343 -2.235232,-0.41406 -3.327226,-0.73144 -1.076367,-0.31692 -2.118447,-0.7367 -3.139712,-1.19871 -1.602324,-0.75593 -3.111262,-1.68789 -4.642751,-2.57441 -0.848006,-0.50849 -1.693479,-1.02072 -2.550028,-1.5147 -0.86975,-0.50471 -1.714007,-1.05093 -2.557809,-1.59734 -0.865048,-0.55172 -1.68982,-1.16087 -2.493948,-1.79705 -0.807342,-0.6299 -1.542847,-1.33945 -2.229399,-2.0973 -0.60737,-0.70712 -1.131339,-1.47944 -1.621026,-2.27099 C 10.306281,273.947 9.8520897,273.21806 9.4499117,272.4605 9.0713675,271.7522 8.7131103,271.03333 8.3537106,270.31521 7.9798023,269.56658 7.6062828,268.81775 7.2324155,268.0691 6.8494473,267.32166 6.4814693,266.56752 6.1540998,265.794 5.850215,265.0736 5.5732521,264.34332 5.3705582,263.58783 5.1846575,262.87432 5.0202853,262.15567 4.8717207,261.43357 4.7136796,260.73392 4.6025445,260.0268 4.5326762,259.31333 c -0.055986,-0.70462 -0.105475,-1.40928 -0.1342318,-2.11558 -0.023188,-0.61941 -0.027348,-1.23928 -0.029719,-1.85905 -0.00777,-0.59955 0.00101,-1.19776 0.059898,-1.79468 0.072271,-0.59952 0.1983375,-1.18899 0.3469693,-1.7736 0.1851922,-0.5902 0.4033134,-1.16962 0.6168361,-1.75003 0.2116934,-0.50297 0.4344498,-1.00219 0.6764332,-1.49139 0.2416625,-0.4948 0.5196904,-0.96957 0.8027607,-1.44139 0.3036091,-0.51981 0.6687671,-0.99757 1.0523849,-1.45993 0.3750307,-0.47078 0.7815109,-0.9122 1.219695,-1.3244 0.3623088,-0.34023 0.7285752,-0.67395 1.1177604,-0.98336 0.377702,-0.28658 0.746803,-0.58445 1.126347,-0.86856 0.388229,-0.28977 0.789326,-0.56027 1.195192,-0.82438 0.33449,-0.2323 0.698845,-0.40898 1.06657,-0.58031 0.351002,-0.14568 0.702188,-0.29137 1.054499,-0.43397 0.354482,-0.13801 0.711547,-0.2694 1.063614,-0.41351 0.293411,-0.1188 0.584675,-0.24339 0.879776,-0.35795 0.243314,-0.0821 0.478979,-0.18287 0.717618,-0.27703 0.297407,-0.1348 0.596443,-0.26711 0.89057,-0.40906 0.265,-0.13501 0.54081,-0.24161 0.820779,-0.34029 0.216351,-0.0717 0.421441,-0.17184 0.636718,-0.24604 0.191843,-0.0499 0.382336,-0.10492 0.577398,-0.14109 0.217811,-0.0192 0.43319,-0.0517 0.649578,-0.0829 0.239383,-0.0329 0.480866,-0.0434 0.722251,-0.0443 0.221052,0.0117 0.437308,0.053 0.645231,0.12832 0.184013,0.0798 0.378068,0.11869 0.576607,0.13753 0.22512,0.0152 0.449604,0.0322 0.668231,-0.0311 0.03727,-0.0165 0.487324,-0.20011 0.404486,-0.2313 -0.718384,0.43184 -0.122313,0.0368 1.789267,1.18359 0,0 -1.825001,-1.44585 -1.825001,-1.44585 v 0 c 2.148291,1.25294 2.135942,0.41592 2.098653,1.37928 -0.01587,0.0358 -0.0264,0.0745 -0.04761,0.10741 -0.104849,0.1628 -0.327148,0.21542 -0.485881,0.30526 -0.243184,0.11492 -0.457308,0.135 -0.724089,0.11459 -0.208229,-0.006 -0.418166,-0.0113 -0.617022,-0.0815 -0.199519,-0.0763 -0.392263,-0.16668 -0.609524,-0.18179 -0.228612,-0.0404 -0.463416,-0.007 -0.693892,0.005 -0.215362,0.0235 -0.424912,0.0799 -0.641942,0.0832 -0.191803,0.0196 -0.373834,0.0699 -0.560374,0.11342 -0.222677,0.0519 -0.424982,0.15557 -0.638841,0.23412 -0.276978,0.086 -0.54869,0.18268 -0.810504,0.30852 -0.295314,0.14897 -0.602977,0.27111 -0.895345,0.42658 -0.239384,0.0992 -0.474388,0.20594 -0.720068,0.28846 -0.301685,0.0945 -0.589714,0.22749 -0.886095,0.33702 -0.351553,0.15121 -0.711414,0.27975 -1.068322,0.41751 -0.351859,0.13174 -0.690158,0.29789 -1.04495,0.42291 -0.361275,0.16696 -0.727454,0.32189 -1.056628,0.55003 -0.406978,0.25471 -0.808717,0.51602 -1.192806,0.80472 -0.376206,0.28541 -0.742782,0.58303 -1.119356,0.86793 -0.390239,0.30082 -0.758145,0.62652 -1.120695,0.95988 -0.439991,0.39682 -0.839854,0.83265 -1.2098219,1.29557 -0.3791889,0.45099 -0.7307606,0.92397 -1.0282481,1.43361 -0.2819053,0.46507 -0.5489778,0.93814 -0.7886657,1.42659 -0.2351125,0.48399 -0.4657482,0.97107 -0.6730535,1.46761 -0.2166781,0.56998 -0.4313353,1.14198 -0.6083649,1.72565 -0.142698,0.57497 -0.2581611,1.15604 -0.3267419,1.74495 -0.052369,0.59076 -0.060178,1.18267 -0.049371,1.77554 4.498e-4,0.61499 9.261e-4,1.23012 0.020532,1.84486 0.027099,0.70205 0.078582,1.40233 0.1382773,2.10233 0.072553,0.70613 0.1952562,1.40474 0.3472672,2.09811 0.1486961,0.71673 0.3141393,1.42973 0.4996868,2.1379 0.2130616,0.74283 0.4908833,1.46297 0.7891796,2.17555 0.3322233,0.76739 0.7010469,1.5171 1.0811076,2.26185 0.3744269,0.74925 0.7485825,1.49864 1.1245985,2.2471 0.360614,0.71591 0.722207,1.43141 1.098366,2.13932 0.407764,0.74828 0.844748,1.48078 1.271485,2.21827 0.490625,0.77805 1.012583,1.53898 1.624581,2.2279 0.690597,0.74449 1.430901,1.43868 2.23519,2.0604 0.809211,0.62926 1.640025,1.22961 2.505461,1.77986 0.845296,0.54583 1.693945,1.08689 2.566356,1.5888 0.854287,0.49529 1.696062,1.01144 2.546245,1.51371 0.399287,0.23269 2.319058,1.35009 -1.021528,-0.58134 -0.149227,-0.0863 0.299846,0.17014 0.450797,0.25337 0.45522,0.25099 0.463544,0.25084 0.93017,0.48755 0.159509,0.0809 0.319116,0.16163 0.478673,0.24245 1.013258,0.47643 2.05319,0.89985 3.124728,1.22742 1.083765,0.32707 2.181286,0.60709 3.304879,0.76006 1.100256,0.13968 2.205799,0.24924 3.316756,0.21956 1.132609,-0.006 2.266878,-0.0116 3.396226,-0.10782 1.140399,-0.11624 2.274929,-0.2957 3.376379,-0.62171 1.122479,-0.33418 2.227075,-0.72285 3.297947,-1.19934 1.072057,-0.46909 2.135891,-0.96056 3.157127,-1.53359 0.948838,-0.52309 1.886204,-1.0672 2.752527,-1.72151 0.72753,-0.54305 1.451488,-1.09758 2.030822,-1.80467 0.595151,-0.73212 1.142672,-1.50139 1.604365,-2.3257 0.58361,-1.02066 1.127649,-2.06185 1.674233,-3.10268 0.634153,-1.18108 1.267711,-2.36285 1.877748,-3.55657 0.563128,-1.09847 1.116282,-2.20291 1.623541,-3.32849 0.419873,-0.95598 0.832887,-1.91995 1.059881,-2.94371 0.2183,-0.99002 0.381149,-1.99292 0.396357,-3.00926 0.01037,-0.95166 -0.01453,-1.90532 -0.117478,-2.85211 -0.109056,-0.83309 -0.270793,-1.65657 -0.469693,-2.47294 -0.168535,-0.78506 -0.330277,-1.57287 -0.417283,-2.37195 -0.09273,-0.83042 -0.166039,-1.66246 -0.190905,-2.49812 -0.04736,-0.83947 -0.0936,-1.67916 -0.157032,-2.51754 -0.06051,-0.7605 -0.123852,-1.52043 -0.239581,-2.27509 -0.103886,-0.68285 -0.230483,-1.3622 -0.440375,-2.02179 -0.20551,-0.58355 -0.434353,-1.16295 -0.810707,-1.66104 -0.401169,-0.50625 -0.854967,-0.96741 -1.365977,-1.36427 -0.267801,-0.20771 -0.536131,-0.41493 -0.817177,-0.60471 -0.656661,-0.44342 -2.061527,-1.18733 1.067819,0.58593 -0.567629,-0.32425 -1.153007,-0.61364 -1.725356,-0.92919 -0.516509,-0.27713 -1.012306,-0.59418 -1.546947,-0.83576 -0.57436,-0.26205 -1.173224,-0.47554 -1.790282,-0.6122 -0.676156,-0.15778 -1.360001,-0.27717 -2.043962,-0.39566 -0.69328,-0.10187 -1.389081,-0.18774 -2.084869,-0.27051 -0.757322,-0.095 -1.518438,-0.15124 -2.276787,-0.23708 -0.764635,-0.0683 -1.528318,-0.1452 -2.292178,-0.22094 -0.770962,-0.0737 -1.544034,-0.13386 -2.318292,-0.15684 -0.8581,-0.002 -1.71622,-0.003 -2.574304,0.004 -0.941337,0.0122 -1.882873,0.0311 -2.822506,0.093 -0.848402,0.0536 -1.700313,0.0827 -2.539939,0.22726 -0.602869,0.087 -1.199322,0.2058 -1.797719,0.31842 -0.426879,0.0911 -0.85366,0.1832 -1.282031,0.26663 -0.369287,0.0751 -0.741881,0.12246 -1.117708,0.15048 -0.367509,1.4e-4 -0.735002,-0.002 -1.102506,-0.003 -0.415134,-0.001 -0.830278,-0.004 -1.245412,-0.001 -0.34156,0.001 -0.68384,0.001 -1.024409,0.0305 -0.297406,0.035 -0.596829,0.0877 -0.870279,0.21522 0,0 -1.930182,-1.32189 -1.930182,-1.32189 z"
       inkscape:connector-curvature="0" />
  </g>
</svg>
