<?xml version="1.0" encoding="UTF-8" standalone="no"?>
<!-- Created with Inkscape (http://www.inkscape.org/) -->

<svg
   xmlns:osb="http://www.openswatchbook.org/uri/2009/osb"
   xmlns:dc="http://purl.org/dc/elements/1.1/"
   xmlns:cc="http://creativecommons.org/ns#"
   xmlns:rdf="http://www.w3.org/1999/02/22-rdf-syntax-ns#"
   xmlns:svg="http://www.w3.org/2000/svg"
   xmlns="http://www.w3.org/2000/svg"
   xmlns:xlink="http://www.w3.org/1999/xlink"
   xmlns:sodipodi="http://sodipodi.sourceforge.net/DTD/sodipodi-0.dtd"
   xmlns:inkscape="http://www.inkscape.org/namespaces/inkscape"
   width="256"
   height="256"
   viewBox="0 0 67.733332 67.733335"
   version="1.1"
   id="svg884"
   inkscape:version="0.92.3 (2405546, 2018-03-11)"
   sodipodi:docname="Stone.svg"
   inkscape:export-filename="D:\Programming\Projects\Git\Rune-Valley\Rune Valley\Assets\Sprites\PNG\Stone.png"
   inkscape:export-xdpi="96"
   inkscape:export-ydpi="96">
  <defs
     id="defs878">
    <linearGradient
       inkscape:collect="always"
       id="linearGradient10375">
      <stop
         style="stop-color:#b3b3b3;stop-opacity:0.67123288"
         offset="0"
         id="stop10371" />
      <stop
         style="stop-color:#cccccc;stop-opacity:0;"
         offset="1"
         id="stop10373" />
    </linearGradient>
    <linearGradient
       inkscape:collect="always"
       id="linearGradient10330">
      <stop
         style="stop-color:#1298a1;stop-opacity:0.68036532"
         offset="0"
         id="stop10326" />
      <stop
         style="stop-color:#1298a1;stop-opacity:0;"
         offset="1"
         id="stop10328" />
    </linearGradient>
    <linearGradient
       id="linearGradient10041"
       osb:paint="solid">
      <stop
         style="stop-color:#12a183;stop-opacity:1;"
         offset="0"
         id="stop10039" />
    </linearGradient>
    <radialGradient
       inkscape:collect="always"
       xlink:href="#linearGradient10330"
       id="radialGradient10332"
       cx="27.049311"
       cy="30.563822"
       fx="27.049311"
       fy="30.563822"
       r="28.385917"
       gradientTransform="matrix(1.0010155,-0.97621027,1.0633494,1.0903688,-23.574562,35.110933)"
       gradientUnits="userSpaceOnUse" />
    <radialGradient
       inkscape:collect="always"
       xlink:href="#linearGradient10375"
       id="radialGradient10377"
       cx="20.411043"
       cy="45.08485"
       fx="20.411043"
       fy="45.08485"
       r="29.068505"
       gradientTransform="matrix(-1.1905826,0.41375118,-0.35609069,-1.0246627,79.983989,55.883847)"
       gradientUnits="userSpaceOnUse" />
  </defs>
  <sodipodi:namedview
     id="base"
     pagecolor="#ffffff"
     bordercolor="#666666"
     borderopacity="1.0"
     inkscape:pageopacity="0.0"
     inkscape:pageshadow="2"
     inkscape:zoom="2.8"
     inkscape:cx="150.96686"
     inkscape:cy="135.45616"
     inkscape:document-units="mm"
     inkscape:current-layer="layer4"
     showgrid="false"
     inkscape:window-width="1920"
     inkscape:window-height="1010"
     inkscape:window-x="-8"
     inkscape:window-y="-8"
     inkscape:window-maximized="1"
     units="px"
     inkscape:snap-global="false"
     showguides="false" />
  <metadata
     id="metadata881">
    <rdf:RDF>
      <cc:Work
         rdf:about="">
        <dc:format>image/svg+xml</dc:format>
        <dc:type
           rdf:resource="http://purl.org/dc/dcmitype/StillImage" />
        <dc:title></dc:title>
      </cc:Work>
    </rdf:RDF>
  </metadata>
  <g
     inkscape:groupmode="layer"
     id="layer2"
     inkscape:label="Fill">
    <g
       inkscape:groupmode="layer"
       id="layer3"
       inkscape:label="BG">
      <path
         style="fill:#808080;fill-opacity:1;stroke:#000000;stroke-width:0.26458332px;stroke-linecap:butt;stroke-linejoin:miter;stroke-opacity:1"
         d="M 26.714139,3.4220275 C 20.666519,4.9339323 17.737204,5.2174143 15.658335,6.634825 13.579466,8.0522358 9.421728,13.816373 8.4767875,16.08423 7.5318471,18.352087 2.7126507,33.84911 3.4686031,37.723367 c 0.7559524,3.874257 2.9293153,14.930059 5.1971725,17.670386 2.2678564,2.740329 5.6460194,4.77195 8.9296874,6.307478 3.283668,1.535528 7.346912,3.354539 13.559895,3.141927 C 37.368341,64.630547 44.299924,62.9893 50.447121,54.035771 56.59432,45.082242 60.269277,39.202311 60.737,35.727808 61.204719,32.253302 62.340615,21.562522 58.465208,17.28621 54.5898,13.009898 48.375783,6.7290635 44.767644,5.0586291 41.159505,3.3881944 37.458924,0.24862621 26.714139,3.4220275 Z"
         id="path10348"
         inkscape:connector-curvature="0" />
    </g>
    <g
       inkscape:groupmode="layer"
       id="layer4"
       inkscape:label="Gradient">
      <path
         style="fill:url(#radialGradient10377);fill-opacity:1;stroke:#000000;stroke-width:0.26458332px;stroke-linecap:butt;stroke-linejoin:miter;stroke-opacity:1"
         d="M 26.335527,3.1284208 C 20.287907,4.6403257 17.358592,4.9238077 15.279723,6.3412184 13.200854,7.7586292 9.0431156,13.522767 8.0981746,15.790624 7.1532347,18.058481 2.3340382,33.555505 3.0899906,37.429762 c 0.7559524,3.874256 2.9293153,14.930059 5.197173,17.670385 2.2678564,2.74033 5.6460194,4.771951 8.9296874,6.307479 3.283668,1.535528 7.346912,3.354539 13.559895,3.141927 6.212983,-0.212611 13.144566,-1.853858 19.291763,-10.807387 6.147199,-8.95353 9.822156,-14.83346 10.289878,-18.307963 0.46772,-3.474506 1.603616,-14.165287 -2.271792,-18.441599 C 54.211188,12.716292 47.99717,6.4354569 44.389032,4.7650225 40.780893,3.0945877 37.080311,-0.04498046 26.335527,3.1284208 Z"
         id="path10348-7"
         inkscape:connector-curvature="0" />
    </g>
  </g>
  <g
     inkscape:label="Outline"
     inkscape:groupmode="layer"
     id="layer1"
     transform="translate(0,-229.26665)">
    <path
       style="opacity:1;fill:#333333;fill-opacity:1;fill-rule:nonzero;stroke:none;stroke-width:0.26499999;stroke-linecap:butt;stroke-linejoin:round;stroke-miterlimit:4;stroke-dasharray:none;stroke-dashoffset:0;stroke-opacity:1;paint-order:normal"
       id="path10346"
       d="m 28.554624,233.01379 c -0.471591,0.0826 -0.93795,0.19231 -1.404908,0.29756 -0.763313,0.18654 -1.521338,0.39423 -2.283999,0.58411 -1.14365,0.26859 -2.284244,0.5476 -3.419896,0.84836 -1.040702,0.28011 -2.081511,0.55851 -3.114344,0.86661 -0.556748,0.17605 -1.121375,0.33781 -1.658338,0.56966 -0.259096,0.1251 -0.415703,0.35921 -0.58686,0.57855 -0.226649,0.31018 -0.485903,0.59372 -0.73399,0.88631 -0.229695,0.27457 -0.452885,0.55449 -0.674724,0.83541 -0.251093,0.32494 -0.516432,0.63841 -0.775301,0.95708 -0.312374,0.39094 -0.654023,0.7567 -0.9997,1.11801 -0.341135,0.37533 -0.683032,0.74974 -1.015989,1.13234 -0.299911,0.33339 -0.568846,0.69131 -0.834385,1.05196 -0.27128,0.3802 -0.518408,0.77682 -0.773389,1.16798 -0.274887,0.4498 -0.531667,0.91025 -0.7991081,1.36446 -0.2851983,0.47823 -0.5110488,0.98617 -0.715228,1.50305 -0.2114656,0.5564 -0.3960228,1.12264 -0.5805757,1.68841 -0.1874613,0.62091 -0.4000913,1.2331 -0.6120845,1.84589 -0.2198031,0.59091 -0.3791648,1.20081 -0.5525196,1.8062 -0.1777566,0.56426 -0.3180138,1.13894 -0.4762714,1.70875 -0.1700286,0.55893 -0.3314914,1.11985 -0.4852789,1.68346 -0.1761506,0.58357 -0.3300335,1.17228 -0.4757671,1.76405 -0.1605304,0.6529 -0.338777,1.3012 -0.5187693,1.94894 -0.1748666,0.66736 -0.3039597,1.34475 -0.4415436,2.02034 -0.1340117,0.72161 -0.2476105,1.44687 -0.3265106,2.1766 -0.067965,0.68947 -0.077454,1.38265 -0.085445,2.07484 -0.018777,0.68694 0.029473,1.37251 0.056603,2.05849 0.040453,0.73594 0.1121436,1.46943 0.2098312,2.19985 0.1343459,0.85776 0.3042224,1.70952 0.466979,2.56223 0.2033079,1.00361 0.4502769,1.9979 0.73675,2.98087 0.2795273,0.97377 0.6014048,1.93469 0.9130408,2.89851 0.2922302,0.86645 0.5724573,1.7368 0.8616974,2.60422 0.2324777,0.76315 0.5037802,1.51217 0.8215849,2.24383 0.2434662,0.58286 0.5524127,1.13653 0.9153155,1.65289 0.2856463,0.45248 0.6255816,0.86654 0.963646,1.28012 0.315618,0.36034 0.677103,0.67508 1.063908,0.95612 0.366544,0.27723 0.756631,0.5207 1.129127,0.78968 0.378429,0.26287 0.759387,0.5214 1.146883,0.77078 0.433961,0.29442 0.875391,0.579 1.326577,0.8465 0.446384,0.26544 1.559072,0.92598 -1.06701,-0.61666 -0.08607,-0.0506 0.174112,0.0977 0.2618,0.1454 0.270183,0.14699 0.543607,0.28797 0.817392,0.42807 0.563248,0.28744 1.128598,0.57081 1.695053,0.85188 0.540996,0.2617 1.086945,0.51268 1.631095,0.76759 0.514085,0.23783 1.017638,0.49743 1.533514,0.73133 0.543119,0.25885 1.101442,0.48246 1.663551,0.69609 0.547807,0.19449 1.110655,0.34096 1.67822,0.46428 0.558996,0.12238 1.126238,0.20332 1.694203,0.27053 0.616703,0.0763 1.234742,0.14276 1.853725,0.19762 0.77003,0.0611 1.542864,0.0703 2.314889,0.0773 0.851477,0.005 1.702983,0.006 2.554476,0.006 0.917178,0.0131 1.833038,-0.0418 2.746631,-0.11672 0.939189,-0.0737 1.862344,-0.25997 2.768767,-0.51092 0.816266,-0.22015 1.607876,-0.51592 2.386769,-0.84216 0.463143,-0.17952 0.883608,-0.43699 1.269826,-0.7459 0.334705,-0.31057 0.652557,-0.6388 0.981188,-0.95592 0.494702,-0.48589 1.033857,-0.92166 1.575089,-1.3538 0.639143,-0.50811 1.315992,-0.96262 2.000213,-1.40678 0.554087,-0.37186 1.097301,-0.76312 1.597739,-1.2052 0.435409,-0.39452 0.813263,-0.84517 1.199348,-1.28646 0.369065,-0.4193 0.735571,-0.84106 1.087305,-1.27507 0.261229,-0.34484 0.491887,-0.71244 0.720114,-1.07975 0.221221,-0.37085 0.421103,-0.75315 0.642403,-1.12396 0.2686,-0.45189 0.601316,-0.86031 0.926365,-1.27186 0.417901,-0.47755 0.81834,-0.96957 1.229561,-1.45278 0.4494,-0.51533 0.836086,-1.07829 1.211979,-1.64797 0.35923,-0.536 0.676863,-1.09761 0.994252,-1.65884 0.278698,-0.49265 0.548915,-0.99012 0.835159,-1.47846 0.2838,-0.49426 0.582232,-0.9805 0.890138,-1.46015 0.351015,-0.52875 0.704519,-1.05506 1.036257,-1.59617 0.340373,-0.55577 0.609533,-1.14878 0.876419,-1.74198 0.247827,-0.55855 0.452252,-1.13471 0.662482,-1.70805 0.198403,-0.53077 0.380034,-1.06679 0.540851,-1.61003 0.156321,-0.52029 0.305996,-1.04308 0.433511,-1.57124 0.134803,-0.53822 0.263102,-1.07801 0.352687,-1.62577 0.06478,-0.54531 0.119293,-1.09198 0.154927,-1.64006 0.01836,-0.6169 0.06827,-1.23204 0.09763,-1.84845 0.04082,-0.60183 0.01752,-1.20274 -0.01312,-1.80411 -0.05289,-0.58723 -0.101473,-1.17456 -0.181253,-1.75889 -0.07087,-0.59823 -0.147232,-1.19561 -0.226557,-1.79277 -0.09002,-0.57914 -0.171889,-1.15959 -0.288359,-1.73416 -0.117142,-0.57298 -0.253008,-1.13762 -0.441497,-1.69133 -0.192257,-0.52855 -0.394621,-1.05203 -0.63386,-1.56112 -0.211939,-0.45007 -0.463886,-0.87915 -0.698296,-1.31769 -0.204912,-0.40909 -0.456432,-0.79084 -0.740539,-1.14866 -0.280882,-0.342 -0.569918,-0.67818 -0.836219,-1.03182 -0.272386,-0.356 -0.519901,-0.72801 -0.804497,-1.07483 -0.307491,-0.34681 -0.615651,-0.69295 -0.9247,-1.03846 -0.289637,-0.31196 -0.583515,-0.61914 -0.846519,-0.95429 -0.225758,-0.28894 -0.468431,-0.56348 -0.69946,-0.84811 -0.241562,-0.22685 -0.443852,-0.49096 -0.686213,-0.71651 -0.2276,-0.24594 -0.462439,-0.48466 -0.710205,-0.71011 -0.292349,-0.24027 -0.595588,-0.46676 -0.887479,-0.7075 -0.265808,-0.2362 -0.54702,-0.45372 -0.81638,-0.68576 -0.212269,-0.20344 -0.438798,-0.38934 -0.662961,-0.5792 -0.207576,-0.24104 -0.450434,-0.44333 -0.698015,-0.64107 -0.286483,-0.19514 -0.557673,-0.40851 -0.827736,-0.62549 -0.307176,-0.26382 -0.63572,-0.50324 -0.972521,-0.7278 -0.380857,-0.26633 -0.756277,-0.54005 -1.144617,-0.79555 -0.208203,-0.14571 -0.42069,-0.28623 -0.635161,-0.42259 -0.07425,-0.0472 -0.301977,-0.18076 -0.225764,-0.13679 2.208721,1.27427 1.631596,0.94523 1.091105,0.63808 -0.474295,-0.26062 -0.95005,-0.51899 -1.433949,-0.76142 -0.44754,-0.21614 -0.885926,-0.45047 -1.326722,-0.67988 -0.40332,-0.21327 -0.819491,-0.4007 -1.232032,-0.59513 -0.381066,-0.18058 -0.756994,-0.37126 -1.143556,-0.53993 -0.295423,-0.13647 -0.595458,-0.26143 -0.903065,-0.36751 -0.198839,-0.0821 -0.406199,-0.12979 -0.618254,-0.16018 -0.204997,-0.033 -0.402765,-0.0952 -0.604528,-0.14162 -0.206134,-0.0305 -0.407758,-0.0832 -0.613135,-0.1177 -0.193223,-0.0155 -0.382876,-0.0474 -0.57336,-0.0821 -0.187632,-0.0365 -0.379566,-0.0323 -0.567899,-0.0614 -0.184483,-0.0388 -0.371266,-0.0608 -0.5592,-0.0728 -0.192071,-0.01 -0.38446,-0.009 -0.57672,-0.0105 -0.238069,-0.009 -0.47385,-0.002 -0.709536,0.0321 -0.198733,0.033 -0.399356,0.0494 -0.600432,0.0583 -0.186605,0.01 -0.373843,-0.004 -0.559316,0.0206 -0.189354,0.0359 -0.380463,0.0577 -0.572672,0.0699 -0.170974,-0.006 -0.335367,0.0218 -0.501959,0.0547 -0.162489,0.0258 -0.32466,0.0363 -0.484815,0.0748 -0.159803,0.0456 -0.327509,0.0423 -0.489027,0.0762 -0.164928,0.0484 -0.337052,0.0578 -0.504552,0.0923 -0.172408,0.036 -0.345279,0.0614 -0.515094,0.10847 -0.172788,0.0423 -0.349014,0.0628 -0.522832,0.10067 -0.171773,0.0223 -0.337473,0.0676 -0.505143,0.10889 -0.151209,0.023 -0.295592,0.073 -0.443706,0.10958 -0.142322,0.0419 -0.273791,0.1103 -0.412861,0.16034 -0.140576,0.0565 -0.281577,0.10423 -0.430062,0.13555 -0.145393,0.0353 -0.279471,0.10081 -0.420139,0.14936 -0.144606,0.0581 -0.294061,0.1006 -0.442341,0.14816 -0.717902,0.21579 -0.744638,-0.28422 -1.836312,-0.88669 0,0 1.752579,0.67303 1.752579,0.67303 v 0 c -0.526505,-0.28968 -1.05301,-0.57936 -1.579514,-0.86904 0.06778,0.0423 0.02933,0.0302 0.117153,0.0302 0.149557,-0.0466 0.302827,-0.0831 0.443265,-0.15397 0.147143,-0.032 0.272532,-0.10948 0.41796,-0.14648 0.140957,-0.0544 0.30072,-0.0493 0.431141,-0.137 0.144613,-0.0322 0.266126,-0.10988 0.407072,-0.15261 0.132715,-0.0583 0.317511,-0.0933 0.45906,-0.12876 0.171744,-0.0299 0.332468,-0.0985 0.507757,-0.10824 0.172299,-0.0334 0.339608,-0.0801 0.515173,-0.0944 0.173804,-0.0419 0.341397,-0.0962 0.520845,-0.11247 0.166246,-0.0396 0.331557,-0.0616 0.499872,-0.091 0.05493,-0.0151 0.108331,-0.0368 0.164499,-0.0462 0.106805,-0.0179 0.220168,-0.001 0.325912,-0.0318 0.163845,-0.0361 0.320799,-0.0838 0.4909,-0.0824 0.173566,-0.0267 0.340113,-0.0879 0.518085,-0.0725 0.187627,-0.006 0.375656,-0.0156 0.56029,-0.052 0.190984,-0.0374 0.378352,-0.0491 0.573569,-0.0407 0.197498,-0.004 0.395306,-0.0104 0.59105,-0.0391 0.241231,-0.0354 0.479174,-0.0708 0.724255,-0.0546 0.193265,-0.002 0.386569,-0.002 0.579813,0.002 0.192347,0.006 0.385334,0.0146 0.5745,0.0528 0.0606,0.0129 0.119774,0.0333 0.181192,0.0415 0.126357,0.0168 0.257961,-0.002 0.383977,0.0234 0.192,0.0262 0.376962,0.0844 0.57164,0.0856 0.210526,0.0229 0.412925,0.077 0.620694,0.11133 0.206745,0.0316 0.399222,0.10075 0.604237,0.13804 0.210942,0.0576 0.439295,0.0471 0.641845,0.14341 0.307744,0.11946 0.625779,0.21417 0.920702,0.36627 0.387403,0.17265 0.772739,0.34815 1.151456,0.53987 0.413009,0.19651 0.831223,0.38259 1.238226,0.59129 0.442624,0.23012 0.881187,0.46845 1.329804,0.68675 0.486989,0.23968 0.963761,0.49819 1.442297,0.75424 0.976913,0.56368 1.977003,1.09089 2.900627,1.74063 0.386786,0.26169 0.765053,0.53551 1.150008,0.79988 0.334979,0.23468 0.662427,0.48001 0.975514,0.7434 0.272764,0.21499 0.554389,0.41737 0.829993,0.62855 0.245184,0.20319 0.468235,0.42813 0.700291,0.64554 0.224263,0.18843 0.440348,0.38555 0.66018,0.57906 0.269275,0.22684 0.541491,0.45017 0.809887,0.67805 0.298609,0.23686 0.602829,0.4675 0.886957,0.72189 0.242041,0.23385 0.477941,0.47323 0.711275,0.71573 0.229859,0.24056 0.453969,0.48718 0.676484,0.73439 0.230105,0.28298 0.471355,0.55681 0.693594,0.84621 0.270113,0.32494 0.561827,0.62999 0.844373,0.94399 0.306837,0.34797 0.62307,0.68784 0.918628,1.04549 0.279334,0.35316 0.529034,0.72759 0.808276,1.08083 0.273558,0.34733 0.556678,0.68708 0.834225,1.03122 0.275037,0.37009 0.517703,0.76213 0.724647,1.17456 0.234804,0.43863 0.485674,0.86921 0.687297,1.32473 0.232349,0.51525 0.433702,1.04316 0.620154,1.57672 0.183944,0.56125 0.314466,1.1347 0.433089,1.71307 0.111215,0.57818 0.195212,1.16099 0.281064,1.74338 0.07928,0.59727 0.154003,1.19504 0.22687,1.79312 0.07493,0.58936 0.130844,1.18091 0.176471,1.77324 0.02849,0.60578 0.04061,1.21117 -7.93e-4,1.81696 -0.0307,0.61797 -0.07268,1.23529 -0.09308,1.85374 -0.03388,0.5546 -0.08816,1.10825 -0.159639,1.65921 -0.09638,0.55056 -0.2272,1.09403 -0.359341,1.63694 -0.130204,0.53069 -0.280718,1.05613 -0.438436,1.57926 -0.164327,0.54585 -0.35102,1.08431 -0.54901,1.61886 -0.21449,0.57584 -0.425442,1.15369 -0.676339,1.71498 -0.27178,0.59918 -0.542197,1.20021 -0.887521,1.7618 -0.331589,0.54235 -0.684464,1.07047 -1.03156,1.60296 -0.304705,0.47901 -0.601662,0.96335 -0.884282,1.4557 -0.287013,0.48686 -0.554482,0.98475 -0.836851,1.47431 -0.321363,0.56376 -0.652553,1.12193 -1.011396,1.66285 -0.379278,0.57596 -0.765204,1.14815 -1.218867,1.66942 -0.408212,0.48199 -0.804391,0.97363 -1.217327,1.45166 -0.316391,0.40786 -0.643673,0.81068 -0.901877,1.25927 -0.221289,0.3721 -0.420312,0.75632 -0.643646,1.12723 -0.232556,0.3742 -0.465818,0.7502 -0.73669,1.09811 -0.359122,0.43117 -0.734579,0.84852 -1.103681,1.27111 -0.388014,0.44954 -0.766728,0.9095 -1.20854,1.3084 -0.506886,0.45281 -1.070387,0.83507 -1.631571,1.21691 -0.682469,0.43594 -1.356754,0.88334 -1.988553,1.3915 -0.53099,0.43202 -1.063546,0.86391 -1.544664,1.3523 -0.327967,0.32447 -0.640979,0.66395 -0.976902,0.98016 -0.405279,0.32322 -0.837491,0.59006 -1.326875,0.77083 -0.793192,0.31948 -1.595038,0.61795 -2.420583,0.84434 -0.911032,0.26024 -1.83896,0.45983 -2.784695,0.54103 -0.915548,0.0809 -1.834184,0.13711 -2.753722,0.13022 -0.848966,0.002 -1.697937,0.004 -2.5469,10e-4 -0.770806,-0.006 -1.542124,-0.0104 -2.311731,-0.0584 -0.617046,-0.047 -1.233207,-0.10994 -1.847272,-0.18623 -0.571524,-0.0603 -1.14239,-0.13975 -1.70507,-0.25731 -0.574188,-0.1141 -1.140481,-0.26193 -1.697273,-0.44329 -0.563329,-0.20987 -1.125395,-0.42576 -1.667782,-0.68593 -0.520268,-0.22628 -1.02218,-0.48933 -1.537052,-0.72719 -0.540956,-0.26633 -1.095703,-0.50515 -1.637422,-0.77036 -0.567886,-0.27749 -1.131394,-0.564 -1.695206,-0.8496 -1.073075,-0.53537 -2.113299,-1.13329 -3.139691,-1.75353 -0.449327,-0.27636 -0.893954,-0.56033 -1.331838,-0.85453 -0.387306,-0.25136 -0.767086,-0.51402 -1.145396,-0.77868 -0.377365,-0.26269 -0.7630885,-0.51382 -1.1273287,-0.79487 -0.3788645,-0.29693 -0.7375102,-0.62044 -1.0415786,-0.99533 -0.3347053,-0.41779 -0.6665089,-0.83838 -0.9524079,-1.29191 -0.3476368,-0.52921 -0.6462847,-1.0894 -0.8830392,-1.67728 -0.3059996,-0.73662 -0.5697363,-1.48805 -0.8019801,-2.25119 -0.2831483,-0.86694 -0.5654969,-1.73408 -0.850328,-2.60048 -0.3075106,-0.96471 -0.6287272,-1.92542 -0.9039542,-2.90005 -0.2830274,-0.9904 -0.5318183,-1.99041 -0.7388463,-2.9996 -0.1683388,-0.85838 -0.3491357,-1.71497 -0.480055,-2.58011 -0.09947,-0.73649 -0.1698733,-1.47656 -0.2104215,-2.21872 -0.030107,-0.68881 -0.073391,-1.37768 -0.05325,-2.06752 0.00752,-0.69718 0.023479,-1.39512 0.098112,-2.08895 0.086497,-0.73396 0.1960009,-1.46503 0.3314456,-2.19164 0.1354175,-0.68035 0.2674565,-1.36178 0.4457539,-2.03261 0.17742,-0.64696 0.3550454,-1.29394 0.5115634,-1.94638 0.1421932,-0.59482 0.2986662,-1.18494 0.4726255,-1.77131 0.1522021,-0.5644 0.3189758,-1.12403 0.4858649,-1.68422 0.1574086,-0.57048 0.300595,-1.14486 0.4786471,-1.70947 0.1751767,-0.60763 0.3420079,-1.21804 0.5640933,-1.81085 0.2114841,-0.61217 0.4158652,-1.22624 0.6044178,-1.84592 0.1826824,-0.57061 0.3718333,-1.13967 0.5819961,-1.70079 0.207219,-0.52598 0.4377099,-1.0417 0.7272628,-1.52847 0.2662722,-0.45836 0.5253117,-0.92093 0.7970007,-1.37611 0.2573988,-0.39352 0.5015579,-0.79589 0.7749021,-1.17869 0.2673929,-0.36592 0.5386813,-0.72923 0.8474943,-1.06198 0.334994,-0.3847 0.679012,-0.76118 1.022364,-1.13843 0.34143,-0.35776 0.6787,-0.72017 0.985034,-1.10895 0.256051,-0.31915 0.514949,-0.63595 0.766127,-0.959 0.220122,-0.28547 0.445234,-0.56724 0.680488,-0.84041 0.245283,-0.29095 0.505484,-0.57008 0.72321,-0.88334 0.188375,-0.24602 0.356742,-0.50709 0.639692,-0.65724 0.556921,-0.23233 1.149548,-0.36918 1.723506,-0.55152 1.044621,-0.29668 2.094854,-0.57118 3.143805,-0.85197 1.130836,-0.29573 2.263036,-0.5851 3.397741,-0.86544 0.752653,-0.19513 1.498961,-0.41298 2.250409,-0.61164 0.455113,-0.10972 0.911033,-0.21596 1.367412,-0.31989 0,0 1.538611,1.06127 1.538611,1.06127 z"
       inkscape:connector-curvature="0" />
  </g>
</svg>
